<svg xmlns="http://www.w3.org/2000/svg" xmlns:xlink="http://www.w3.org/1999/xlink" width="700pt" height="700pt" version="1.1" viewBox="0 0 700 700">
 <defs>
  <symbol id="p" overflow="visible">
   <path d="m31.266-1.875c-1.6172 0.84375-3.2969 1.4766-5.0469 1.8906-1.7422 0.42578-3.5586 0.64062-5.4531 0.64062-5.668 0-10.156-1.582-13.469-4.75-3.3125-3.1641-4.9688-7.4609-4.9688-12.891 0-5.4375 1.6562-9.7383 4.9688-12.906 3.3125-3.1641 7.8008-4.75 13.469-4.75 1.8945 0 3.7109 0.21484 5.4531 0.64062 1.75 0.42969 3.4297 1.0586 5.0469 1.8906v7.0469c-1.625-1.1133-3.2305-1.9258-4.8125-2.4375-1.5742-0.51953-3.2344-0.78125-4.9844-0.78125-3.1367 0-5.6016 1.0078-7.3906 3.0156-1.793 2-2.6875 4.7617-2.6875 8.2812 0 3.5117 0.89453 6.2734 2.6875 8.2812 1.7891 2 4.2539 3 7.3906 3 1.75 0 3.4102-0.25391 4.9844-0.76562 1.582-0.51953 3.1875-1.332 4.8125-2.4375z"/>
  </symbol>
  <symbol id="j" overflow="visible">
   <path d="m22.875-18.578c-0.71094-0.33203-1.418-0.57812-2.125-0.73438-0.71094-0.15625-1.418-0.23438-2.125-0.23438-2.1055 0-3.7266 0.67188-4.8594 2.0156-1.125 1.3438-1.6875 3.2656-1.6875 5.7656v11.766h-8.1562v-25.531h8.1562v4.2031c1.0508-1.6758 2.2539-2.8945 3.6094-3.6562 1.3633-0.76953 2.9922-1.1562 4.8906-1.1562 0.26953 0 0.56641 0.011719 0.89062 0.03125 0.32031 0.023437 0.78516 0.074219 1.3906 0.15625z"/>
  </symbol>
  <symbol id="a" overflow="visible">
   <path d="m29.391-12.828v2.3281h-19.062c0.19531 1.9062 0.88281 3.3398 2.0625 4.2969 1.1875 0.96094 2.8438 1.4375 4.9688 1.4375 1.7188 0 3.4766-0.25391 5.2812-0.76562 1.8008-0.50781 3.6484-1.2812 5.5469-2.3125v6.2969c-1.9297 0.73047-3.8594 1.2773-5.7969 1.6406-1.9297 0.375-3.8555 0.5625-5.7812 0.5625-4.6172 0-8.2031-1.1719-10.766-3.5156s-3.8438-5.6328-3.8438-9.875c0-4.1641 1.2539-7.4414 3.7656-9.8281 2.5195-2.3828 5.9844-3.5781 10.391-3.5781 4.0078 0 7.2188 1.2109 9.625 3.625 2.4062 2.418 3.6094 5.6484 3.6094 9.6875zm-8.375-2.7188c0-1.5391-0.45312-2.7852-1.3594-3.7344-0.90625-0.95703-2.0898-1.4375-3.5469-1.4375-1.5859 0-2.8711 0.44922-3.8594 1.3438-0.98047 0.88672-1.5898 2.1641-1.8281 3.8281z"/>
  </symbol>
  <symbol id="b" overflow="visible">
   <path d="m15.359-11.484c-1.6992 0-2.9805 0.29297-3.8438 0.875-0.85547 0.57422-1.2812 1.4219-1.2812 2.5469 0 1.0312 0.34375 1.8398 1.0312 2.4219 0.69531 0.58594 1.6602 0.875 2.8906 0.875 1.5312 0 2.8164-0.54688 3.8594-1.6406 1.0508-1.1016 1.5781-2.4844 1.5781-4.1406v-0.9375zm12.469-3.0781v14.562h-8.2344v-3.7812c-1.0938 1.5547-2.3242 2.6836-3.6875 3.3906-1.3672 0.69531-3.0273 1.0469-4.9844 1.0469-2.6484 0-4.7969-0.76953-6.4531-2.3125-1.6484-1.5391-2.4688-3.5391-2.4688-6 0-2.9883 1.0312-5.1797 3.0938-6.5781 2.0625-1.4062 5.2969-2.1094 9.7031-2.1094h4.7969v-0.64062c0-1.2891-0.51172-2.2344-1.5312-2.8281-1.0117-0.60156-2.5938-0.90625-4.75-0.90625-1.75 0-3.3828 0.17969-4.8906 0.53125-1.5 0.34375-2.8984 0.86719-4.1875 1.5625v-6.2188c1.75-0.42578 3.5039-0.75 5.2656-0.96875 1.7578-0.21875 3.5234-0.32812 5.2969-0.32812 4.5938 0 7.9102 0.91406 9.9531 2.7344 2.0508 1.8125 3.0781 4.7617 3.0781 8.8438z"/>
  </symbol>
  <symbol id="i" overflow="visible">
   <path d="m12.828-32.766v7.2344h8.4062v5.8438h-8.4062v10.828c0 1.1797 0.23438 1.9805 0.70312 2.4062 0.47656 0.41797 1.4141 0.625 2.8125 0.625h4.1875v5.8281h-7c-3.2188 0-5.5-0.67188-6.8438-2.0156s-2.0156-3.625-2.0156-6.8438v-10.828h-4.0625v-5.8438h4.0625v-7.2344z"/>
  </symbol>
  <symbol id="h" overflow="visible">
   <path d="m21.281-21.781v-13.672h8.2031v35.453h-8.2031v-3.6875c-1.125 1.5-2.3672 2.6016-3.7188 3.2969-1.3438 0.69531-2.9062 1.0469-4.6875 1.0469-3.1484 0-5.7305-1.25-7.75-3.75-2.0234-2.5-3.0312-5.7109-3.0312-9.6406 0-3.9375 1.0078-7.1562 3.0312-9.6562 2.0195-2.5 4.6016-3.75 7.75-3.75 1.7578 0 3.3164 0.35547 4.6719 1.0625 1.3633 0.71094 2.6094 1.8086 3.7344 3.2969zm-5.375 16.516c1.75 0 3.082-0.63281 4-1.9062 0.91406-1.2812 1.375-3.1328 1.375-5.5625 0-2.4375-0.46094-4.2891-1.375-5.5625-0.91797-1.2812-2.25-1.9219-4-1.9219-1.7305 0-3.0586 0.64062-3.9844 1.9219-0.91797 1.2734-1.375 3.125-1.375 5.5625 0 2.4297 0.45703 4.2812 1.375 5.5625 0.92578 1.2734 2.2539 1.9062 3.9844 1.9062z"/>
  </symbol>
  <symbol id="g" overflow="visible">
   <path d="m17.5-5.2656c1.75 0 3.082-0.63281 4-1.9062 0.91406-1.2812 1.375-3.1328 1.375-5.5625 0-2.4375-0.46094-4.2891-1.375-5.5625-0.91797-1.2812-2.25-1.9219-4-1.9219s-3.0938 0.64844-4.0312 1.9375c-0.92969 1.2812-1.3906 3.1328-1.3906 5.5469 0 2.418 0.46094 4.2656 1.3906 5.5469 0.9375 1.2812 2.2812 1.9219 4.0312 1.9219zm-5.4219-16.516c1.125-1.4883 2.3672-2.5859 3.7344-3.2969 1.3633-0.70703 2.9375-1.0625 4.7188-1.0625 3.1445 0 5.7266 1.25 7.75 3.75 2.0195 2.5 3.0312 5.7188 3.0312 9.6562 0 3.9297-1.0117 7.1406-3.0312 9.6406-2.0234 2.5-4.6055 3.75-7.75 3.75-1.7812 0-3.3555-0.35156-4.7188-1.0469-1.3672-0.70703-2.6094-1.8047-3.7344-3.2969v3.6875h-8.1562v-35.453h8.1562z"/>
  </symbol>
  <symbol id="f" overflow="visible">
   <path d="m0.5625-25.531h8.1719l6.8594 17.328 5.8281-17.328h8.1562l-10.734 27.953c-1.0742 2.832-2.3281 4.8164-3.7656 5.9531-1.4375 1.1328-3.3359 1.7031-5.6875 1.7031h-4.7188v-5.3594h2.5469c1.3828 0 2.3906-0.22656 3.0156-0.67188 0.63281-0.4375 1.1289-1.2266 1.4844-2.3594l0.21875-0.70312z"/>
  </symbol>
  <symbol id="e" overflow="visible">
   <path d="m4.2812-34.031h8.7812v30.734c0 4.2266-1.1523 7.3906-3.4531 9.4844-2.3047 2.1016-5.7891 3.1562-10.453 3.1562h-1.7812v-6.625h1.375c1.8203 0 3.1953-0.51172 4.125-1.5312 0.9375-1.0234 1.4062-2.5156 1.4062-4.4844z"/>
  </symbol>
  <symbol id="o" overflow="visible">
   <path d="m29.578-15.547v15.547h-8.2031v-11.891c0-2.207-0.054688-3.7266-0.15625-4.5625-0.09375-0.83203-0.26172-1.4453-0.5-1.8438-0.32422-0.53125-0.76172-0.94141-1.3125-1.2344-0.54297-0.30078-1.1641-0.45312-1.8594-0.45312-1.6992 0-3.0391 0.65625-4.0156 1.9688-0.96875 1.3125-1.4531 3.1328-1.4531 5.4531v12.562h-8.1562v-25.531h8.1562v3.75c1.2266-1.4883 2.5352-2.5859 3.9219-3.2969 1.3828-0.70703 2.9102-1.0625 4.5781-1.0625 2.9453 0 5.1797 0.90625 6.7031 2.7188 1.5312 1.8047 2.2969 4.4297 2.2969 7.875z"/>
  </symbol>
  <symbol id="n" overflow="visible">
   <path d="m2.5312-16.75h14.312v6.625h-14.312z"/>
  </symbol>
  <symbol id="m" overflow="visible">
   <path d="m4.2812-34.031h14.562c4.332 0 7.6562 0.96484 9.9688 2.8906 2.3203 1.918 3.4844 4.6562 3.4844 8.2188s-1.1641 6.3086-3.4844 8.2344c-2.3125 1.918-5.6367 2.875-9.9688 2.875h-5.7812v11.812h-8.7812zm8.7812 6.3594v9.5156h4.8438c1.707 0 3.0234-0.41016 3.9531-1.2344 0.92578-0.83203 1.3906-2.0078 1.3906-3.5312 0-1.5195-0.46484-2.6914-1.3906-3.5156-0.92969-0.82031-2.2461-1.2344-3.9531-1.2344z"/>
  </symbol>
  <symbol id="l" overflow="visible">
   <path d="m29.578-15.547v15.547h-8.2031v-11.844c0-2.2383-0.054688-3.7734-0.15625-4.6094-0.09375-0.83203-0.26172-1.4453-0.5-1.8438-0.32422-0.53125-0.76172-0.94141-1.3125-1.2344-0.54297-0.30078-1.1641-0.45312-1.8594-0.45312-1.6992 0-3.0391 0.65625-4.0156 1.9688-0.96875 1.3125-1.4531 3.1328-1.4531 5.4531v12.562h-8.1562v-35.453h8.1562v13.672c1.2266-1.4883 2.5352-2.5859 3.9219-3.2969 1.3828-0.70703 2.9102-1.0625 4.5781-1.0625 2.9453 0 5.1797 0.90625 6.7031 2.7188 1.5312 1.8047 2.2969 4.4297 2.2969 7.875z"/>
  </symbol>
  <symbol id="d" overflow="visible">
   <path d="m3.9219-25.531h8.1562v25.531h-8.1562zm0-9.9219h8.1562v6.6406h-8.1562z"/>
  </symbol>
  <symbol id="k" overflow="visible">
   <path d="m3.9219-35.453h8.1562v35.453h-8.1562z"/>
  </symbol>
  <symbol id="c" overflow="visible">
   <path d="m12.078-3.6875v13.391h-8.1562v-35.234h8.1562v3.75c1.125-1.4883 2.3672-2.5859 3.7344-3.2969 1.3633-0.70703 2.9375-1.0625 4.7188-1.0625 3.1445 0 5.7266 1.25 7.75 3.75 2.0195 2.5 3.0312 5.7188 3.0312 9.6562 0 3.9297-1.0117 7.1406-3.0312 9.6406-2.0234 2.5-4.6055 3.75-7.75 3.75-1.7812 0-3.3555-0.35156-4.7188-1.0469-1.3672-0.70703-2.6094-1.8047-3.7344-3.2969zm5.4219-16.531c-1.75 0-3.0938 0.64844-4.0312 1.9375-0.92969 1.2812-1.3906 3.1328-1.3906 5.5469 0 2.418 0.46094 4.2656 1.3906 5.5469 0.9375 1.2812 2.2812 1.9219 4.0312 1.9219s3.082-0.63281 4-1.9062c0.91406-1.2812 1.375-3.1328 1.375-5.5625 0-2.4375-0.46094-4.2891-1.375-5.5625-0.91797-1.2812-2.25-1.9219-4-1.9219z"/>
  </symbol>
 </defs>
 <g>
  <path fill="#1A535C" d="m178.86 286.42c0 2.4766-0.98047 4.8477-2.7305 6.6016-1.7539 1.75-4.125 2.7305-6.6016 2.7305h-2.8398c-5.1523 0-9.332-4.1797-9.332-9.332 0-5.1562 4.1797-9.332 9.332-9.332h2.8398c2.4766-0.003906 4.8477 0.98047 6.6016 2.7305 1.75 1.75 2.7305 4.125 2.7305 6.6016zm-9.332 20.324h-2.8398c-5.1523 0-9.332 4.1797-9.332 9.332 0 5.1562 4.1797 9.3359 9.332 9.3359h2.8398c5.1562 0 9.332-4.1797 9.332-9.3359 0-5.1523-4.1758-9.332-9.332-9.332zm0 29.66h-2.8398c-5.1523 0-9.332 4.1797-9.332 9.332 0 5.1562 4.1797 9.3359 9.332 9.3359h2.8398c5.1562 0 9.332-4.1797 9.332-9.3359 0-5.1523-4.1758-9.332-9.332-9.332zm0 29.66h-2.8398c-5.1523 0-9.332 4.1758-9.332 9.332 0 5.1523 4.1797 9.332 9.332 9.332h2.8398c5.1562 0 9.332-4.1797 9.332-9.332 0-5.1562-4.1758-9.332-9.332-9.332zm0 29.66-2.8398-0.003906c-5.1523 0-9.332 4.1797-9.332 9.332 0 5.1562 4.1797 9.3359 9.332 9.3359h2.8398c5.1562 0 9.332-4.1797 9.332-9.3359 0-5.1523-4.1758-9.332-9.332-9.332zm0 29.668-2.8398-0.003906c-5.1523 0-9.332 4.1797-9.332 9.332 0 5.1562 4.1797 9.3359 9.332 9.3359h2.8398c5.1562 0 9.332-4.1797 9.332-9.3359 0-5.1523-4.1758-9.332-9.332-9.332zm167.41-59.328h-2.8477c-5.1523 0-9.332 4.1758-9.332 9.332 0 5.1523 4.1797 9.332 9.332 9.332h2.8438c5.1562 0 9.3359-4.1797 9.3359-9.332 0-5.1562-4.1797-9.332-9.3359-9.332zm0 29.66h-2.8438l-0.003906-0.003906c-5.1523 0-9.332 4.1797-9.332 9.332 0 5.1562 4.1797 9.3359 9.332 9.3359h2.8438c5.1562 0 9.3359-4.1797 9.3359-9.3359 0-5.1523-4.1797-9.332-9.3359-9.332zm0 29.668h-2.8438l-0.003906-0.003906c-5.1523 0-9.332 4.1797-9.332 9.332 0 5.1562 4.1797 9.3359 9.332 9.3359h2.8438c5.1562 0 9.3359-4.1797 9.3359-9.3359 0-5.1523-4.1797-9.332-9.3359-9.332zm-77.84-246.58c-7.4062-7.7539-10.469-18.68-8.1797-29.148 2.293-10.473 9.6445-19.117 19.609-23.066 9.9648-3.9492 21.238-2.6836 30.082 3.375 8.8438 6.0586 14.094 16.117 14.008 26.836 0.0625 9.8086-4.4453 19.086-12.195 25.102-5.6953 4.4805-12.73 6.9219-19.977 6.9375-8.8242-0.042968-17.25-3.6641-23.348-10.035zm13.473-12.926h-0.003906c2.0703 2.2383 4.8477 3.6953 7.8633 4.1172 3.6992 0.57031 7.4688-0.41797 10.414-2.7305 3.1211-2.5078 4.9883-6.2578 5.1094-10.262 0.11719-4-1.5273-7.8555-4.4961-10.539-2.4688-2.1914-5.6484-3.4141-8.9492-3.4375-0.29297 0-0.57812 0.007813-0.86328 0.035157l-0.21094 0.007812v0.003907c-5.2148 0.38281-9.7422 3.7305-11.637 8.6016-1.8906 4.8711-0.8125 10.398 2.7695 14.203zm294.88 162.2c3.7344 31.852-6.2188 63.793-27.383 87.887-21.168 24.09-51.562 38.074-83.629 38.473-32.07 0.39844-62.801-12.828-84.559-36.387v47.43c0.003906 2.4766-0.98047 4.8516-2.7305 6.6016s-4.125 2.7344-6.6016 2.7305h-221.4c-2.4766 0-4.8516-0.98047-6.6016-2.7344-1.75-1.75-2.7344-4.1211-2.7305-6.5977v-209.85c-0.003906-2.4727 0.98047-4.8477 2.7305-6.5977s4.125-2.7344 6.6016-2.7344h71.801v-151.81c0-2.4766 0.98047-4.8477 2.7344-6.5977 1.75-1.7539 4.1211-2.7344 6.5977-2.7344h234.99c2.4766-0.003906 4.8516 0.98047 6.6016 2.7305s2.7344 4.125 2.7305 6.6016v133.96c17.938 1.832 35.172 7.9375 50.258 17.801 13.164 8.6211 24.398 19.871 33.004 33.043 9.5703 14.676 15.59 31.375 17.582 48.781zm-335.83-64.68h141.11-0.003906c3.6055-3.8867 7.4766-7.5117 11.594-10.852 2.9062-2.3047 5.9258-4.457 9.0469-6.4531l-133.46 0.41016h-0.027344c-3.7852 0-7.1953-2.2852-8.6328-5.7852-1.4414-3.5-0.62109-7.5234 2.0703-10.184l45.953-45.445-0.003906-0.003907c2.8438-2.8125 7.1602-3.5039 10.738-1.7109l22.59 11.293 26.039-38.863v-0.003906c1.7109-2.5469 4.5664-4.0938 7.6367-4.1367 3.0273 0.12109 5.8477 1.5586 7.7266 3.9375l53.621 75.652c6.668-1.6797 13.473-2.7422 20.336-3.168v-124.26h-216.32zm134.98-85.957-23.078 34.445v-0.003906c-2.6172 3.9023-7.7227 5.2539-11.926 3.1562l-23.961-11.977-24.977 24.699 119.34-0.36328zm-153.64 95.293v-7.7656h-8.5391v71.422h94.875l-0.003906-54.324h-77c-2.4766 0-4.8477-0.98047-6.6016-2.7344-1.75-1.75-2.7305-4.125-2.7305-6.5977zm86.332 111.98h-94.875v71.43h94.875zm53.922 71.43v-65.258c-1.1484-2.3359-2.2227-4.7031-3.1992-7.1094-3.9414-9.8438-6.4727-20.195-7.5156-30.746-1.5742 1.2734-3.5273 1.9844-5.5508 2.0273h-2.8438c-5.1523 0-9.332-4.1797-9.332-9.3359 0-5.1523 4.1797-9.332 9.332-9.332h2.8438c1.7695 0.042969 3.4883 0.60547 4.9414 1.6133 0.035156-1.3047-0.058594-2.6094 0.023437-3.9102 0.23828-3.75 0.66797-7.4883 1.2891-11.195-1.6953 1.5898-3.9297 2.4805-6.2539 2.5h-2.8438c-5.1523 0-9.332-4.1797-9.332-9.3359 0-5.1523 4.1797-9.332 9.332-9.332h2.8438c3.7148 0.003906 7.0703 2.2109 8.5469 5.6172 1.8867-7.1484 4.4727-14.09 7.7188-20.727v-9.5547h-8.1406c0.76172 1.3242 1.1758 2.8164 1.2109 4.3398 0 2.4766-0.98438 4.8477-2.7344 6.6016-1.75 1.75-4.125 2.7305-6.6016 2.7305h-2.8438c-2.4727 0-4.8477-0.98047-6.5977-2.7305-1.75-1.7539-2.7344-4.125-2.7344-6.6016 0.03125-1.5234 0.44922-3.0156 1.207-4.3398h-8.0195v63.656c0 2.4766-0.98438 4.8516-2.7344 6.6016s-4.125 2.7344-6.5977 2.7344h-113.54c-2.4727 0-4.8477-0.98438-6.5977-2.7344-1.7539-1.75-2.7344-4.125-2.7344-6.6016v-80.754h-35.262v191.18h35.262v-80.762c0-2.4766 0.98047-4.8516 2.7344-6.6016 1.75-1.75 4.125-2.7344 6.5977-2.7305h113.54c2.4727-0.003906 4.8477 0.98047 6.5977 2.7305s2.7344 4.125 2.7344 6.6016v80.766zm195.7-125.95c-1.6602-14.52-6.6836-28.453-14.664-40.695-7.1992-11.012-16.594-20.418-27.598-27.625-15.336-10.031-33.258-15.375-51.582-15.379-1.6602 0-3.3125 0.046876-4.957 0.13672h-0.054688c-19.73 0.99609-38.645 8.168-54.078 20.5-9.9414 7.9414-18.191 17.793-24.262 28.977-13.41 24.875-15.027 54.434-4.4141 80.625 7.0039 17.105 18.824 31.805 34.027 42.309 20.062 13.812 44.684 19.348 68.727 15.461 24.047-3.8906 45.668-16.902 60.355-36.336 14.688-19.43 21.316-43.777 18.5-67.973zm-46.367-50.066c2.3438 1.7656 3.7188 4.5273 3.7227 7.457v72.289h-0.10547c0.015625 0.35938 0.10547 0.69531 0.10547 1.0586v-0.003906c-0.003906 6.7148-2.6719 13.152-7.418 17.898-4.75 4.7461-11.188 7.4141-17.902 7.4141-6.7109 0-13.152-2.668-17.898-7.4141-4.7461-4.75-7.4141-11.188-7.4141-17.902 0-6.7109 2.6641-13.152 7.4141-17.898 4.7461-4.7461 11.184-7.4141 17.898-7.418 2.25 0.03125 4.4883 0.36719 6.6523 1v-36.648l-43.148 12.352v65.25h-0.10547c0.015625 0.35938 0.10547 0.69531 0.10547 1.0586 0 6.7148-2.6641 13.156-7.4141 17.902-4.7461 4.75-11.184 7.418-17.898 7.418-6.7148 0.003906-13.152-2.6641-17.902-7.4102-4.7461-4.7461-7.418-11.188-7.418-17.898 0-6.7148 2.6641-13.156 7.4102-17.902 4.75-4.75 11.188-7.418 17.902-7.418 2.25 0.03125 4.4883 0.36719 6.6523 0.99609v-49.031c0-4.1641 2.7578-7.8242 6.7617-8.9688l61.816-17.691c2.8164-0.81641 5.8477-0.25391 8.1836 1.5117zm-76.762 98.492c0-2.6875-1.6211-5.1094-4.1055-6.1367s-5.3438-0.46094-7.2461 1.4414c-1.8984 1.9023-2.4688 4.7578-1.4414 7.2422 1.0273 2.4844 3.4492 4.1055 6.1406 4.1094 1.7617 0 3.457-0.70312 4.7031-1.9492 1.25-1.25 1.9492-2.9414 1.9492-4.707zm61.816-17.691c0-2.6875-1.6172-5.1133-4.1016-6.1445s-5.3438-0.46484-7.2461 1.4375c-1.9023 1.8984-2.4727 4.7578-1.4453 7.2422 1.0273 2.4883 3.4492 4.1094 6.1406 4.1094 3.668 0 6.6445-2.9727 6.6523-6.6445z"/>
  
 </g>
</svg>